<svg xmlns="http://www.w3.org/2000/svg" width="32" height="32" viewBox="0 0 32 32" fill="none">
  <path fill="#ffffff" d="M16 2.667C8.64 2.667 2.667 8.64 2.667 16S8.64 29.333 16 29.333 29.333 23.36 29.333 16 23.36 2.667 16 2.667z"></path>
  <path fill="#0A66C2" d="M12.114 22.333h-2.89V13.49h2.89v8.843zM10.67 12.279c-.926 0-1.5-.623-1.5-1.401 0-.791.59-1.398 1.535-1.398.945 0 1.5.607 1.516 1.398 0 .778-.571 1.401-1.55 1.401zM23.333 22.333h-2.889v-4.747c0-1.188-.424-2.001-1.484-2.001-.81 0-1.294.544-1.505 1.071-.077.188-.096.45-.096.713v4.964h-2.89s.038-8.05 0-8.843h2.89v1.253c.384-.59 1.071-1.429 2.608-1.429 1.9 0 3.365 1.237 3.365 3.894v5.125z"></path>
</svg>
