<svg xmlns="http://www.w3.org/2000/svg" width="32" height="32" viewBox="0 0 32 32" fill="none">
  <path fill="#25D366" d="M16.002 2.667c-7.337 0-13.333 5.996-13.333 13.333 0 2.356.618 4.608 1.788 6.602L2.667 29.333l6.933-1.77A13.273 13.273 0 0016.002 29.333c7.337 0 13.333-5.996 13.333-13.333 0-7.337-5.996-13.333-13.333-13.333z"></path>
  <path fill="#FFF" d="M23.244 19.538c-.348-.174-2.05-1.01-2.37-1.125-.318-.116-.55-.174-.78.174-.23.348-.89 1.124-1.092 1.355-.2.23-.404.261-.752.087-.348-.174-1.47-.541-2.8-1.723-1.034-.922-1.732-2.06-1.933-2.408-.2-.348-.022-.536.152-.71.156-.155.348-.403.522-.605.174-.203.231-.348.348-.58.116-.23.058-.435-.029-.61-.087-.174-.78-1.886-1.07-2.586-.278-.67-.56-.58-.78-.59-.2-.009-.434-.011-.666-.011-.23 0-.609.087-.928.435-.318.348-1.213 1.186-1.213 2.89 0 1.704 1.244 3.35 1.417 3.58.174.23 2.447 3.73 5.927 5.23.83.358 1.477.571 1.981.73.832.264 1.59.227 2.19.138.668-.1 2.05-.836 2.34-1.642.29-.806.29-1.497.203-1.642-.087-.145-.319-.23-.667-.406z"></path>
</svg>
